<?xml version="1.0" encoding="UTF-8" standalone="no"?>
<!-- Created with Inkscape (http://www.inkscape.org/) -->

<svg
   xmlns:dc="http://purl.org/dc/elements/1.1/"
   xmlns:cc="http://creativecommons.org/ns#"
   xmlns:rdf="http://www.w3.org/1999/02/22-rdf-syntax-ns#"
   xmlns:svg="http://www.w3.org/2000/svg"
   xmlns="http://www.w3.org/2000/svg"
   xmlns:sodipodi="http://sodipodi.sourceforge.net/DTD/sodipodi-0.dtd"
   xmlns:inkscape="http://www.inkscape.org/namespaces/inkscape"
   width="297mm"
   height="120mm"
   viewBox="0 0 1052.3622 425.1966"
   id="svg5075"
   version="1.1"
   inkscape:version="0.91 r13725"
   sodipodi:docname="modularity.svg">
  <defs
     id="defs5077" />
  <sodipodi:namedview
     id="base"
     pagecolor="#ffffff"
     bordercolor="#666666"
     borderopacity="1.0"
     inkscape:pageopacity="1"
     inkscape:pageshadow="2"
     inkscape:zoom="0.49497475"
     inkscape:cx="514.88099"
     inkscape:cy="160.57576"
     inkscape:document-units="px"
     inkscape:current-layer="layer1"
     showgrid="false"
     height="209mm"
     inkscape:window-width="959"
     inkscape:window-height="1017"
     inkscape:window-x="960"
     inkscape:window-y="25"
     inkscape:window-maximized="0" />
  <metadata
     id="metadata5080">
    <rdf:RDF>
      <cc:Work
         rdf:about="">
        <dc:format>image/svg+xml</dc:format>
        <dc:type
           rdf:resource="http://purl.org/dc/dcmitype/StillImage" />
        <dc:title></dc:title>
      </cc:Work>
    </rdf:RDF>
  </metadata>
  <g
     inkscape:label="Layer 1"
     inkscape:groupmode="layer"
     id="layer1"
     transform="translate(0,-627.16562)">
    <path
       inkscape:connector-curvature="0"
       id="path34"
       style="fill:none;stroke:#656263;stroke-width:6.12652683;stroke-linecap:butt;stroke-linejoin:miter;stroke-miterlimit:4;stroke-dasharray:62.49057487, 7.81132186;stroke-dashoffset:0;stroke-opacity:1"
       d="m 992.02567,960.98646 c 0,34.51685 -27.98601,62.49054 -62.49064,62.49054 l -321.3731,0 c -34.51071,0 -62.4967,-27.97369 -62.4967,-62.49054 l 0,-233.85566 c 0,-34.51073 27.98599,-62.49057 62.4967,-62.49057 l 321.3731,0 c 34.50463,0 62.49064,27.97984 62.49064,62.49057 l 0,233.85566 z m -489.06846,0 c 0,34.51685 -27.97371,62.49054 -62.48445,62.49054 l -321.37923,0 c -34.510706,0 -62.496679,-27.97369 -62.496679,-62.49054 l 0,-233.85566 c 0,-34.51073 27.985973,-62.49057 62.496679,-62.49057 l 321.37923,0 c 34.51074,0 62.48445,27.97984 62.48445,62.49057 l 0,233.85566 z" />
    <path
       inkscape:connector-curvature="0"
       id="path36"
       style="fill:#7b7979;fill-opacity:1;fill-rule:nonzero;stroke:none"
       d="m 182.9687,739.70243 c 0,19.33531 -15.67776,35.00697 -35.01308,35.00697 -19.33532,0 -35.00699,-15.67166 -35.00699,-35.00697 0,-19.33532 15.67167,-35.00697 35.00699,-35.00697 19.33532,0 35.01308,15.67165 35.01308,35.00697" />
    <path
       inkscape:connector-curvature="0"
       id="path38"
       style="fill:none;stroke:#656263;stroke-width:3.06326342;stroke-linecap:butt;stroke-linejoin:miter;stroke-miterlimit:4;stroke-dasharray:none;stroke-opacity:1"
       d="m 182.9687,739.70243 c 0,19.33531 -15.67776,35.00697 -35.01308,35.00697 -19.33532,0 -35.00699,-15.67166 -35.00699,-35.00697 0,-19.33532 15.67167,-35.00697 35.00699,-35.00697 19.33532,0 35.01308,15.67165 35.01308,35.00697 z" />
    <path
       inkscape:connector-curvature="0"
       id="path40"
       style="fill:#7b7979;fill-opacity:1;fill-rule:nonzero;stroke:none"
       d="m 402.50668,933.92559 c 0,19.33532 -15.66553,35.0131 -35.00084,35.0131 -19.33532,0 -35.01311,-15.67778 -35.01311,-35.0131 0,-19.33532 15.67779,-35.00698 35.01311,-35.00698 19.33531,0 35.00084,15.67166 35.00084,35.00698" />
    <path
       inkscape:connector-curvature="0"
       id="path42"
       style="fill:none;stroke:#656263;stroke-width:3.06326342;stroke-linecap:butt;stroke-linejoin:miter;stroke-miterlimit:4;stroke-dasharray:none;stroke-opacity:1"
       d="m 402.50668,933.92559 c 0,19.33532 -15.66553,35.0131 -35.00084,35.0131 -19.33532,0 -35.01311,-15.67778 -35.01311,-35.0131 0,-19.33532 15.67779,-35.00698 35.01311,-35.00698 19.33531,0 35.00084,15.67166 35.00084,35.00698 z" />
    <path
       inkscape:connector-curvature="0"
       id="path44"
       style="fill:#7b7979;fill-opacity:1;fill-rule:nonzero;stroke:none"
       d="m 400.81575,760.91248 c 0,19.33532 -15.67164,35.01309 -35.00697,35.01309 -19.33531,0 -35.00696,-15.67777 -35.00696,-35.01309 0,-19.32919 15.67165,-35.00698 35.00696,-35.00698 19.33533,0 35.00697,15.67779 35.00697,35.00698" />
    <path
       inkscape:connector-curvature="0"
       id="path46"
       style="fill:none;stroke:#656263;stroke-width:3.06326342;stroke-linecap:butt;stroke-linejoin:miter;stroke-miterlimit:4;stroke-dasharray:none;stroke-opacity:1"
       d="m 400.81575,760.91248 c 0,19.33532 -15.67164,35.01309 -35.00697,35.01309 -19.33531,0 -35.00696,-15.67777 -35.00696,-35.01309 0,-19.32919 15.67165,-35.00698 35.00696,-35.00698 19.33533,0 35.00697,15.67779 35.00697,35.00698 z" />
    <path
       inkscape:connector-curvature="0"
       id="path48"
       style="fill:#7b7979;fill-opacity:1;fill-rule:nonzero;stroke:none"
       d="m 197.56824,937.58926 c 0,19.33531 -15.67779,35.0131 -35.00699,35.0131 -19.34758,0 -35.01309,-15.67779 -35.01309,-35.0131 0,-19.33533 15.66551,-35.00698 35.01309,-35.00698 19.3292,0 35.00699,15.67165 35.00699,35.00698" />
    <path
       inkscape:connector-curvature="0"
       id="path50"
       style="fill:none;stroke:#656263;stroke-width:3.06326342;stroke-linecap:butt;stroke-linejoin:miter;stroke-miterlimit:4;stroke-dasharray:none;stroke-opacity:1"
       d="m 197.56824,937.58926 c 0,19.33531 -15.67779,35.0131 -35.00699,35.0131 -19.34758,0 -35.01309,-15.67779 -35.01309,-35.0131 0,-19.33533 15.66551,-35.00698 35.01309,-35.00698 19.3292,0 35.00699,15.67165 35.00699,35.00698 z" />
    <path
       inkscape:connector-curvature="0"
       id="path52"
       style="fill:#7b7979;fill-opacity:1;fill-rule:nonzero;stroke:none"
       d="m 704.71599,758.39447 c 0,19.33532 -15.66553,35.00697 -35.00696,35.00697 -19.32307,0 -35.00086,-15.67165 -35.00086,-35.00697 0,-19.33532 15.67779,-35.00697 35.00086,-35.00697 19.34143,0 35.00696,15.67165 35.00696,35.00697" />
    <path
       inkscape:connector-curvature="0"
       id="path54"
       style="fill:none;stroke:#656263;stroke-width:3.06326342;stroke-linecap:butt;stroke-linejoin:miter;stroke-miterlimit:4;stroke-dasharray:none;stroke-opacity:1"
       d="m 704.71599,758.39447 c 0,19.33532 -15.66553,35.00697 -35.00696,35.00697 -19.32307,0 -35.00086,-15.67165 -35.00086,-35.00697 0,-19.33532 15.67779,-35.00697 35.00086,-35.00697 19.34143,0 35.00696,15.67165 35.00696,35.00697 z" />
    <path
       inkscape:connector-curvature="0"
       id="path56"
       style="fill:#7b7979;fill-opacity:1;fill-rule:nonzero;stroke:none"
       d="m 706.19249,947.58776 c 0,19.33532 -15.68391,35.01309 -35.01923,35.01309 -19.33532,0 -35.00086,-15.67777 -35.00086,-35.01309 0,-19.33532 15.66554,-35.00698 35.00086,-35.00698 19.33532,0 35.01923,15.67166 35.01923,35.00698" />
    <path
       inkscape:connector-curvature="0"
       id="path58"
       style="fill:none;stroke:#656263;stroke-width:3.06326342;stroke-linecap:butt;stroke-linejoin:miter;stroke-miterlimit:4;stroke-dasharray:none;stroke-opacity:1"
       d="m 706.19249,947.58776 c 0,19.33532 -15.68391,35.01309 -35.01923,35.01309 -19.33532,0 -35.00086,-15.67777 -35.00086,-35.01309 0,-19.33532 15.66554,-35.00698 35.00086,-35.00698 19.33532,0 35.01923,15.67166 35.01923,35.00698 z" />
    <path
       inkscape:connector-curvature="0"
       id="path60"
       style="fill:#7b7979;fill-opacity:1;fill-rule:nonzero;stroke:none"
       d="m 936.6418,837.46343 c 0,19.33532 -15.67778,35.00697 -35.00696,35.00697 -19.33532,0 -35.00698,-15.67165 -35.00698,-35.00697 0,-19.33533 15.67166,-35.00699 35.00698,-35.00699 19.32918,0 35.00696,15.67166 35.00696,35.00699" />
    <path
       inkscape:connector-curvature="0"
       id="path62"
       style="fill:none;stroke:#656263;stroke-width:3.06326342;stroke-linecap:butt;stroke-linejoin:miter;stroke-miterlimit:4;stroke-dasharray:none;stroke-opacity:1"
       d="m 936.6418,837.46343 c 0,19.33532 -15.67778,35.00697 -35.00696,35.00697 -19.33532,0 -35.00698,-15.67165 -35.00698,-35.00697 0,-19.33533 15.67166,-35.00699 35.00698,-35.00699 19.32918,0 35.00696,15.67166 35.00696,35.00699 z" />
    <path
       inkscape:connector-curvature="0"
       id="path64"
       style="fill:none;stroke:#656263;stroke-width:4.59489536;stroke-linecap:butt;stroke-linejoin:miter;stroke-miterlimit:4;stroke-dasharray:none;stroke-opacity:1"
       d="m 413.60181,766.94099 171.69593,-8.65066" />
    <path
       inkscape:connector-curvature="0"
       id="path66"
       style="fill:#656263;fill-opacity:1;fill-rule:nonzero;stroke:none"
       d="m 617.70094,756.66066 -44.7359,20.95272 9.90659,-19.20053 -11.76906,-18.10388 46.59837,16.35169" />
    <path
       inkscape:connector-curvature="0"
       id="path68"
       style="fill:none;stroke:#656263;stroke-width:4.59489536;stroke-linecap:butt;stroke-linejoin:miter;stroke-miterlimit:4;stroke-dasharray:none;stroke-opacity:1"
       d="M 620.12706,947.50811 457.73732,939.15764" />
    <path
       inkscape:connector-curvature="0"
       id="path70"
       style="fill:#656263;fill-opacity:1;fill-rule:nonzero;stroke:none"
       d="m 425.33411,937.49123 46.62288,-16.30268 -11.79356,18.09164 9.86983,19.21278 -44.69915,-21.00174" />
    <path
       inkscape:connector-curvature="0"
       id="path72"
       style="fill:none;stroke:#656263;stroke-width:4.59489536;stroke-linecap:butt;stroke-linejoin:miter;stroke-miterlimit:4;stroke-dasharray:none;stroke-opacity:1"
       d="m 193.6105,724.64342 95.28588,8.09927" />
    <path
       inkscape:connector-curvature="0"
       id="path74"
       style="fill:#656263;fill-opacity:1;fill-rule:nonzero;stroke:none"
       d="m 321.21993,735.48738 -47.13752,14.74043 12.38785,-17.69341 -9.22043,-19.52523 43.9701,22.47821" />
    <path
       inkscape:connector-curvature="0"
       id="path76"
       style="fill:none;stroke:#656263;stroke-width:4.59489536;stroke-linecap:butt;stroke-linejoin:miter;stroke-miterlimit:4;stroke-dasharray:none;stroke-opacity:1"
       d="M 318.94697,770.9845 223.6611,762.88521" />
    <path
       inkscape:connector-curvature="0"
       id="path78"
       style="fill:#656263;fill-opacity:1;fill-rule:nonzero;stroke:none"
       d="m 191.33755,760.14054 47.13749,-14.74043 -12.40008,17.69341 9.23266,19.52523 -43.97007,-22.47821" />
    <path
       inkscape:connector-curvature="0"
       id="path80"
       style="fill:none;stroke:#656263;stroke-width:4.59489536;stroke-linecap:butt;stroke-linejoin:miter;stroke-miterlimit:4;stroke-dasharray:none;stroke-opacity:1"
       d="m 320.19679,954.91507 -77.15136,5.00537" />
    <path
       inkscape:connector-curvature="0"
       id="path82"
       style="fill:#656263;fill-opacity:1;fill-rule:nonzero;stroke:none"
       d="m 210.67287,962.02184 44.4112,-21.60212 -9.62478,19.34755 12.04475,17.92623 -46.83117,-15.67166" />
    <path
       inkscape:connector-curvature="0"
       id="path84"
       style="fill:none;stroke:#656263;stroke-width:4.59489536;stroke-linecap:butt;stroke-linejoin:miter;stroke-miterlimit:4;stroke-dasharray:none;stroke-opacity:1"
       d="m 209.05547,928.97536 77.14521,-5.0115" />
    <path
       inkscape:connector-curvature="0"
       id="path86"
       style="fill:#656263;fill-opacity:1;fill-rule:nonzero;stroke:none"
       d="m 318.57938,921.86246 -44.41732,21.60214 9.61865,-19.34145 -12.04474,-17.93846 46.84341,15.67777" />
    <path
       inkscape:connector-curvature="0"
       id="path88"
       style="fill:none;stroke:#656263;stroke-width:4.59489536;stroke-linecap:butt;stroke-linejoin:miter;stroke-miterlimit:4;stroke-dasharray:none;stroke-opacity:1"
       d="m 326.70316,787.29329 -95.65959,93.61335" />
    <path
       inkscape:connector-curvature="0"
       id="path90"
       style="fill:#656263;fill-opacity:1;fill-rule:nonzero;stroke:none"
       d="m 207.8608,903.59928 19.61101,-45.32403 5.3117,20.93432 20.81794,5.75895 -45.74065,18.63076" />
    <path
       inkscape:connector-curvature="0"
       id="path92"
       style="fill:none;stroke:#656263;stroke-width:4.59489536;stroke-linecap:butt;stroke-linejoin:miter;stroke-miterlimit:4;stroke-dasharray:none;stroke-opacity:1"
       d="M 370.18313,886.27958 369.9013,840.64921" />
    <path
       inkscape:connector-curvature="0"
       id="path94"
       style="fill:#656263;fill-opacity:1;fill-rule:nonzero;stroke:none"
       d="m 369.69913,808.20313 18.95547,45.60587 -18.74105,-10.73367 -18.61238,10.96648 18.39796,-45.83868" />
    <path
       inkscape:connector-curvature="0"
       id="path96"
       style="fill:none;stroke:#656263;stroke-width:4.59489536;stroke-linecap:butt;stroke-linejoin:miter;stroke-miterlimit:4;stroke-dasharray:none;stroke-opacity:1"
       d="m 132.93949,898.76546 -1.69091,-76.53871" />
    <path
       inkscape:connector-curvature="0"
       id="path98"
       style="fill:#656263;fill-opacity:1;fill-rule:nonzero;stroke:none"
       d="m 130.53178,789.79292 19.6784,45.29342 -18.90647,-10.43348 -18.43472,11.26056 17.66279,-46.1205" />
    <path
       inkscape:connector-curvature="0"
       id="path100"
       style="fill:none;stroke:#656263;stroke-width:4.59489536;stroke-linecap:butt;stroke-linejoin:miter;stroke-miterlimit:4;stroke-dasharray:none;stroke-opacity:1"
       d="m 162.50612,783.78892 1.69704,76.53869" />
    <path
       inkscape:connector-curvature="0"
       id="path102"
       style="fill:#656263;fill-opacity:1;fill-rule:nonzero;stroke:none"
       d="m 164.91997,892.76147 -19.68454,-45.29342 18.9126,10.4396 18.43471,-11.26668 -17.66277,46.1205" />
    <path
       inkscape:connector-curvature="0"
       id="path104"
       style="fill:none;stroke:#656263;stroke-width:4.59489536;stroke-linecap:butt;stroke-linejoin:miter;stroke-miterlimit:4;stroke-dasharray:none;stroke-opacity:1"
       d="m 651.02311,904.73269 -1.52549,-68.62324" />
    <path
       inkscape:connector-curvature="0"
       id="path106"
       style="fill:#656263;fill-opacity:1;fill-rule:nonzero;stroke:none"
       d="m 648.78082,803.6695 19.6784,45.29955 -18.9126,-10.43961 -18.42859,11.26056 17.66279,-46.1205" />
    <path
       inkscape:connector-curvature="0"
       id="path108"
       style="fill:none;stroke:#656263;stroke-width:4.59489536;stroke-linecap:butt;stroke-linejoin:miter;stroke-miterlimit:4;stroke-dasharray:none;stroke-opacity:1"
       d="m 686.16488,800.80229 1.50712,68.19436" />
    <path
       inkscape:connector-curvature="0"
       id="path110"
       style="fill:#656263;fill-opacity:1;fill-rule:nonzero;stroke:none"
       d="m 688.38267,901.4305 -19.69064,-45.29342 18.91259,10.4396 18.44696,-11.26668 -17.66891,46.1205" />
    <path
       inkscape:connector-curvature="0"
       id="path112"
       style="fill:none;stroke:#656263;stroke-width:4.59489536;stroke-linecap:butt;stroke-linejoin:miter;stroke-miterlimit:4;stroke-dasharray:none;stroke-opacity:1"
       d="M 704.92431,917.3227 821.75106,857.39302" />
    <path
       inkscape:connector-curvature="0"
       id="path114"
       style="fill:#656263;fill-opacity:1;fill-rule:nonzero;stroke:none"
       d="m 850.61312,842.58519 -32.1459,37.4821 1.11503,-21.5715 -18.16515,-11.66489 49.19602,-4.24571" />
    <path
       inkscape:connector-curvature="0"
       id="path116"
       style="fill:none;stroke:#656263;stroke-width:4.59489536;stroke-linecap:butt;stroke-linejoin:miter;stroke-miterlimit:4;stroke-dasharray:none;stroke-opacity:1"
       d="M 865.50058,875.31311 748.67383,935.2428" />
    <path
       inkscape:connector-curvature="0"
       id="path118"
       style="fill:#656263;fill-opacity:1;fill-rule:nonzero;stroke:none"
       d="m 719.79339,950.05062 32.15813,-37.48823 -1.12728,21.5715 18.18355,11.66491 -49.2144,4.25182" />
    <path
       inkscape:connector-curvature="0"
       id="path120"
       style="fill:none;stroke:#656263;stroke-width:4.59489536;stroke-linecap:butt;stroke-linejoin:miter;stroke-miterlimit:4;stroke-dasharray:none;stroke-opacity:1"
       d="m 721.69261,750.71181 116.00578,34.33305" />
    <path
       inkscape:connector-curvature="0"
       id="path122"
       style="fill:#656263;fill-opacity:1;fill-rule:nonzero;stroke:none"
       d="m 868.82115,794.25302 -49.14087,4.93799 15.69617,-14.83232 -5.1034,-20.98949 38.5481,30.88382" />
    <path
       inkscape:connector-curvature="0"
       id="path124"
       style="fill:none;stroke:#656263;stroke-width:4.59489536;stroke-linecap:butt;stroke-linejoin:miter;stroke-miterlimit:4;stroke-dasharray:none;stroke-opacity:1"
       d="M 855.25702,823.61748 746.55406,791.44708" />
    <path
       inkscape:connector-curvature="0"
       id="path126"
       style="fill:#656263;fill-opacity:1;fill-rule:nonzero;stroke:none"
       d="m 715.43743,782.23892 49.15312,-4.93187 -15.70842,14.83234 5.10339,20.98334 -38.54809,-30.88381" />
  </g>
</svg>
